# xmcd
#
# Track frame offsets: 
#        150
#        18853
#        26151
#        41168
#        52321
#        96502
#        116999
#        135001
#        148014
#        160794
#        236042
#        258909
#        273362
#        283915
#        301476
#        328164
#        345616
#
# Disc length: 4760 seconds
#
# Revision: 0
# Processed by: cddbd v1.5.2PL0 Copyright (c) Steve Scherf et al.
# Submitted via: ExactAudioCopy v0.95b4
#
DISCID=05129611
DTITLE=The Beatles  - AB  Road - Complete Purple Chick Set v1.1 Jan.28
DTITLE=Various Artist - D4  FLAC
DYEAR=1900
DGENRE=
TTITLE0=I've Got A Feeling 28.51
TTITLE1=One After 909 28.52
TTITLE2=One After 909 28.53
TTITLE3=One After 909 28.54
TTITLE4=Old Brown Shoe 28.55
TTITLE5=Old Brown Shoe 28.56
TTITLE6=Old Brown Shoe 28.57
TTITLE7=Old Brown Shoe 28.58
TTITLE8=Old Brown Shoe 28.59
TTITLE9=Old Brown Shoe 28.60
TTITLE10=Old Brown Shoe 28.61
TTITLE11=Improvisation 28.62
TTITLE12=Old Brown Shoe 28.63
TTITLE13=I Want You (She's So Heavy) 28.64
TTITLE14=I Want You (She's So Heavy) 28.65
TTITLE15=Unless He Has A Song 28.66
TTITLE16=Sticks And Stones 28.67
EXTD=
EXTT0=
EXTT1=
EXTT2=
EXTT3=
EXTT4=
EXTT5=
EXTT6=
EXTT7=
EXTT8=
EXTT9=
EXTT10=
EXTT11=
EXTT12=
EXTT13=
EXTT14=
EXTT15=
EXTT16=
PLAYORDER=
